<svg xmlns="http://www.w3.org/2000/svg" width="1080" height="1080"><circle cx="540" cy="540" r="540" style="fill:#000;fill-opacity:1;stroke-width:1.035;stroke-dasharray:none;paint-order:normal;fill-rule:nonzero"/><path fill="#fefefe" d="m540.294 255.37 4.29-.055c25.138.294 45.214 14.084 66.063 26.551a3891 3891 0 0 0 16.308 9.669l3.275 1.936a4840 4840 0 0 0 19.035 11.19l11.187 6.544a3176 3176 0 0 1 34.83 20.714 2003 2003 0 0 0 25.991 15.343q7.09 4.13 14.179 8.264l3.43 1.997c23.56 13.746 23.56 13.746 32.963 22.265l2.217 1.881c13.458 12.215 23.55 31.809 24.776 49.947l.003 4.728.012 2.659c.01 2.911.002 5.823-.006 8.735l.012 6.297c.011 5.682.007 11.364 0 17.046-.006 5.958 0 11.916.003 17.873q.006 15.007-.013 30.015-.019 17.325.004 34.651.015 14.9.006 29.799-.007 8.887.004 17.776.01 8.36-.012 16.719-.005 3.06.003 6.119c.023 9.85-.012 19.15-2.748 28.702-.39 1.395-.78 2.79-1.18 4.227-7.8 23.372-22.847 37.1-43.273 49.797a1191 1191 0 0 0-8.512 5.357q-7.23 4.582-14.475 9.14c-4.818 3.035-9.631 6.077-14.445 9.118l-5.762 3.64-2.881 1.819-57.621 36.392-5.772 3.646a25693 25693 0 0 1-14.27 9.007l-2.826 1.784-5.665 3.571q-7.964 5.025-15.88 10.126l-3.566 2.292a1740 1740 0 0 0-6.782 4.382c-22.807 14.643-45.638 20.555-72.887 16.305-17.344-3.95-32.602-15.365-47.277-24.969-6.256-4.09-12.56-8.107-18.87-12.117l-3.424-2.177a11608 11608 0 0 0-33.12-20.947 10535 10535 0 0 1-39.791-25.214q-10.836-6.9-21.698-13.757l-2.817-1.78a3009 3009 0 0 0-14.57-9.148c-25.896-16.177-48.535-32.79-55.838-64.29-1.791-9.238-1.512-18.59-1.506-27.959-.01-2.091-.015-4.183-.025-6.275a5324 5324 0 0 1-.029-16.956c0-3.539-.01-7.078-.013-10.617q-.033-18.55-.03-37.101c.001-11.494-.024-22.988-.062-34.482a8644 8644 0 0 1-.043-29.693q.001-8.848-.032-17.696a2433 2433 0 0 1-.01-16.653c0-2.026 0-4.052-.018-6.078-.168-24.702 7.585-45.474 24.94-63.357 4.844-4.56 9.963-8.22 15.642-11.676l2.077-1.265c6.897-4.187 13.855-8.272 20.826-12.335q5.76-3.36 11.514-6.73l2.369-1.385c7.793-4.562 15.56-9.167 23.324-13.778a5869 5869 0 0 1 34.119-20.092c12.28-7.18 24.5-14.451 36.685-21.793 10.054-6.048 20.173-11.982 30.321-17.87l3.387-1.966 3.275-1.9a672 672 0 0 0 9.633-5.796c13.586-8.136 25.324-9.995 41.042-10.117z" style="stroke-width:1.2131"/></svg>