<svg xmlns="http://www.w3.org/2000/svg" width="400" height="376" fill="#fff" viewBox="0 0 300 282"><path d="M135.5 53.7c-1.1.2-4 1.15-6.5 2-2.6.95-10.15 1.9-18 2.35C90.2 59.2 79.4 63.6 77.7 71.7 76.1 79.2 66.1 88.1 59 88.35c-5.15.2-2.55 2.65 2.75 2.65h3.4l-4.95 5.55c-9.7 10.9-12.5 20.8-8.1 28.45 1.1 1.9 1.7 2.6 1.35 1.5-2.15-6.4-2.3-8.1-1.4-12.25.55-2.5 1.7-5.65 2.55-7.1s1.2-1.75.8-.65c-2.75 7.95-1.2 19.25 3.75 27.05 3.6 5.75 3.9 11.6.65 13.9L57.55 149h2.55c1.35 0 3.05-.55 3.7-1.2.95-.95 1.2-.9 1.2.2 0 3.4 4.45 10.25 8.55 13 4.7 3.3 6.3 6.3 4.4 8.55-1.65 2 .45 1.9 2.5-.1.85-.9 1.55-2.05 1.55-2.55 0-.55 2.05 1.35 4.6 4.2 3.05 3.45 4.4 5.8 4.1 7.05-.6 2.25 1.55 2.5 3.35.3 1.55-1.85 2.9-.3 2.95 3.35 0 2.15.15 2.2 2.75.85 5.45-2.75 7.65-3.1 6.85-1C104.9 186.1 95.4 200 94 200c-5.15 0-25.3 50.85-29.35 74.25L63.3 282h104.75l-.6-2.75c-3-13.6-12.25-37.3-18.45-47.45-1.65-2.65-3-5.75-3-6.9 0-1.25-1.9-3.9-4.5-6.25-9.75-8.95-10.6-13.1-4.55-22.45 5.4-8.4 7.5-9.6 15.3-8.8 20.6 2 20.1 2.05 23.35-.7 1.7-1.45 3.55-4.3 4.2-6.45s2.3-4.95 3.7-6.25c1.35-1.3 2.5-3.1 2.5-4.05s.7-2.25 1.5-2.95c.85-.7 1.5-2.7 1.5-4.45 0-2.2.9-4.05 3-6.05 4.25-4.05 3.9-6.5-1.5-10.3-4.8-3.35-5.7-6.15-2.95-8.9 1.1-1.1 1.25-1.9.5-2.65-1.45-1.45-1.3-6.6.2-6.75.7-.1 1.7-.25 2.25-.35.55-.15 1.6-.3 2.3-.4 1.6-.2 4.2-6.15 4.2-9.65 0-2.5.05-2.5 2.95-1.05 1.6.85 4.2 1.55 5.75 1.55h2.8l-3-2c-6.8-4.45-7.8-9.95-3.85-21.05C205 85.4 204.5 81.5 199.2 77c-5.65-4.9-14.25-9.95-18.7-11-4.7-1.15-12.2-3.55-26-8.35-10.45-3.6-15.65-4.7-19-3.95"/></svg>